<?xml version="1.0" encoding="utf-8"?>
<!-- Generator: Adobe Illustrator 26.0.2, SVG Export Plug-In . SVG Version: 6.00 Build 0)  -->
<svg version="1.1" id="Layer_1" xmlns="http://www.w3.org/2000/svg" xmlns:xlink="http://www.w3.org/1999/xlink" x="0px" y="0px"
	 viewBox="0 0 81.7 650.6" style="enable-background:new 0 0 81.7 650.6;" xml:space="preserve">
<style type="text/css">
	.st0{fill:url(#SVGID_1_);}
	.st1{fill:#010101;}
	.st2{fill:url(#SVGID_00000003795038720702102030000000593976274404366250_);}
	.st3{fill:#FFFFFF;}
	.st4{fill:none;stroke:#F7B05B;stroke-miterlimit:10;}
	.st5{opacity:0.15;}
	.st6{fill:#F7B05B;}
	.st7{fill:none;stroke:#FFFFFF;stroke-miterlimit:10;}
	.st8{fill:url(#SVGID_00000056423586829996660800000010905753513862469791_);}
	.st9{fill:#969A97;}
	.st10{fill:#B09165;}
	.st11{fill:#E69D38;}
	.st12{fill:#CD4D32;}
	.st13{fill:#E6E6E6;}
	.st14{fill:url(#SVGID_00000124858543407187155080000000169280068232402621_);}
	.st15{fill:url(#SVGID_00000098197057017806967040000005239272458738901405_);}
	.st16{fill:url(#SVGID_00000150792635314240140540000011763382150411900803_);}
	.st17{fill:#756044;}
	.st18{fill:none;stroke:#F7B05B;stroke-width:2;stroke-miterlimit:10;}
	.st19{opacity:0.85;}
	.st20{clip-path:url(#SVGID_00000019639444958984983540000008457079782974607031_);fill:#F7B05B;}
	
		.st21{opacity:0.5;clip-path:url(#SVGID_00000019639444958984983540000008457079782974607031_);fill:none;stroke:#000000;stroke-width:5;stroke-miterlimit:10;}
	.st22{clip-path:url(#SVGID_00000119109366044371584130000012639621053379493054_);fill:#F7B05B;}
	
		.st23{opacity:0.5;clip-path:url(#SVGID_00000119109366044371584130000012639621053379493054_);fill:none;stroke:#000000;stroke-width:5;stroke-miterlimit:10;}
	.st24{clip-path:url(#SVGID_00000165205472801388006550000005007550134613800359_);fill:#F7B05B;}
	
		.st25{opacity:0.5;clip-path:url(#SVGID_00000165205472801388006550000005007550134613800359_);fill:none;stroke:#000000;stroke-width:5;stroke-miterlimit:10;}
	.st26{fill:#FFFFFF;stroke:#000000;stroke-miterlimit:10;}
	.st27{clip-path:url(#SVGID_00000091008244029833985470000015437519191703970993_);fill:#F7B05B;}
	
		.st28{opacity:0.5;clip-path:url(#SVGID_00000091008244029833985470000015437519191703970993_);fill:none;stroke:#000000;stroke-width:5;stroke-miterlimit:10;}
	.st29{opacity:0.5;fill:none;stroke:#000000;stroke-width:5;stroke-linecap:round;stroke-linejoin:round;stroke-miterlimit:10;}
	.st30{fill:#FFFFFF;stroke:#F7B05B;stroke-width:2;stroke-miterlimit:10;}
	
		.st31{clip-path:url(#SVGID_00000008123986630379464860000013905034252831809983_);fill:url(#SVGID_00000069364412470915108060000011426271868435652992_);}
	
		.st32{clip-path:url(#SVGID_00000008123986630379464860000013905034252831809983_);fill:url(#SVGID_00000173857937494636718740000011542163241957577118_);}
	
		.st33{clip-path:url(#SVGID_00000008123986630379464860000013905034252831809983_);fill:url(#SVGID_00000133513180439776857160000009646056510184627635_);}
	
		.st34{clip-path:url(#SVGID_00000008123986630379464860000013905034252831809983_);fill:url(#SVGID_00000177443160524604194410000009691669604848071808_);}
	
		.st35{clip-path:url(#SVGID_00000008123986630379464860000013905034252831809983_);fill:url(#SVGID_00000118390201401171843640000014696871902494577819_);}
	
		.st36{clip-path:url(#SVGID_00000008123986630379464860000013905034252831809983_);fill:url(#SVGID_00000008831478439342048230000010512290642202006424_);}
	
		.st37{clip-path:url(#SVGID_00000008123986630379464860000013905034252831809983_);fill:url(#SVGID_00000012466724851731655860000002060913126096868000_);}
	
		.st38{clip-path:url(#SVGID_00000008123986630379464860000013905034252831809983_);fill:url(#SVGID_00000070832375913738448810000007629768320243897502_);}
	
		.st39{clip-path:url(#SVGID_00000091729220572805728470000017847690692791214218_);fill:url(#SVGID_00000168809154652781254700000007360739200902247579_);}
	
		.st40{clip-path:url(#SVGID_00000091729220572805728470000017847690692791214218_);fill:url(#SVGID_00000015330165586275679150000001297217632572109966_);}
	
		.st41{clip-path:url(#SVGID_00000091729220572805728470000017847690692791214218_);fill:url(#SVGID_00000005253280562996110460000009357004936392848518_);}
	
		.st42{clip-path:url(#SVGID_00000091729220572805728470000017847690692791214218_);fill:url(#SVGID_00000064349025365790189340000015127577635100930688_);}
	
		.st43{clip-path:url(#SVGID_00000091729220572805728470000017847690692791214218_);fill:url(#SVGID_00000083070058167093252180000013708266524966107569_);}
	
		.st44{clip-path:url(#SVGID_00000091729220572805728470000017847690692791214218_);fill:url(#SVGID_00000086660875358068099170000008430480494044771465_);}
	
		.st45{clip-path:url(#SVGID_00000091729220572805728470000017847690692791214218_);fill:url(#SVGID_00000026146208073502962270000003816051130322454150_);}
	
		.st46{clip-path:url(#SVGID_00000091729220572805728470000017847690692791214218_);fill:url(#SVGID_00000163052268984437149650000013912068543404422290_);}
	
		.st47{clip-path:url(#SVGID_00000011012861373374485590000005307490167299104942_);fill:url(#SVGID_00000032619307075480015330000011496276041427068053_);}
	
		.st48{clip-path:url(#SVGID_00000011012861373374485590000005307490167299104942_);fill:url(#SVGID_00000036946897420951896410000015481539095590155171_);}
	
		.st49{clip-path:url(#SVGID_00000011012861373374485590000005307490167299104942_);fill:url(#SVGID_00000165944544508498393440000010047232653686615732_);}
	
		.st50{clip-path:url(#SVGID_00000011012861373374485590000005307490167299104942_);fill:url(#SVGID_00000170275065585140309730000005384285369735997598_);}
	
		.st51{clip-path:url(#SVGID_00000011012861373374485590000005307490167299104942_);fill:url(#SVGID_00000083062736800166236290000011454324497438202288_);}
	
		.st52{clip-path:url(#SVGID_00000011012861373374485590000005307490167299104942_);fill:url(#SVGID_00000060723293597418361500000017858379345433543062_);}
	
		.st53{clip-path:url(#SVGID_00000011012861373374485590000005307490167299104942_);fill:url(#SVGID_00000097473068787882211950000005763914769293877129_);}
	
		.st54{clip-path:url(#SVGID_00000011012861373374485590000005307490167299104942_);fill:url(#SVGID_00000129179123115357870780000004996289482694793909_);}
	
		.st55{clip-path:url(#SVGID_00000003080357063507910070000018281163730510715068_);fill:url(#SVGID_00000116917473600403095540000016890305937636935863_);}
	
		.st56{clip-path:url(#SVGID_00000003080357063507910070000018281163730510715068_);fill:url(#SVGID_00000103244559066520493280000003618510271251695025_);}
	
		.st57{clip-path:url(#SVGID_00000003080357063507910070000018281163730510715068_);fill:url(#SVGID_00000164502658511293708730000011487410458146026417_);}
	
		.st58{clip-path:url(#SVGID_00000003080357063507910070000018281163730510715068_);fill:url(#SVGID_00000051384081505980825150000013816108892149192086_);}
	
		.st59{clip-path:url(#SVGID_00000003080357063507910070000018281163730510715068_);fill:url(#SVGID_00000142138424956840619410000007119914373639578557_);}
	
		.st60{clip-path:url(#SVGID_00000003080357063507910070000018281163730510715068_);fill:url(#SVGID_00000032610773968257295010000008241362184184977554_);}
	
		.st61{clip-path:url(#SVGID_00000003080357063507910070000018281163730510715068_);fill:url(#SVGID_00000036234789512169516520000009501425965454973325_);}
	
		.st62{clip-path:url(#SVGID_00000003080357063507910070000018281163730510715068_);fill:url(#SVGID_00000074420629150139199060000001350441625906589879_);}
	
		.st63{clip-path:url(#SVGID_00000129915218934573169030000013261862785780385926_);fill:url(#SVGID_00000072251462780901712810000000018622761330243505_);}
	
		.st64{clip-path:url(#SVGID_00000129915218934573169030000013261862785780385926_);fill:url(#SVGID_00000017512569000934180630000008687776478255084971_);}
	
		.st65{clip-path:url(#SVGID_00000129915218934573169030000013261862785780385926_);fill:url(#SVGID_00000050626695629983606390000009239235670231467711_);}
	
		.st66{clip-path:url(#SVGID_00000129915218934573169030000013261862785780385926_);fill:url(#SVGID_00000016783977759964941780000011267817001402479266_);}
	
		.st67{clip-path:url(#SVGID_00000129915218934573169030000013261862785780385926_);fill:url(#SVGID_00000039115872422841268270000016866221462766671778_);}
	
		.st68{clip-path:url(#SVGID_00000129915218934573169030000013261862785780385926_);fill:url(#SVGID_00000142167585876705025520000014677746151047265668_);}
	
		.st69{clip-path:url(#SVGID_00000129915218934573169030000013261862785780385926_);fill:url(#SVGID_00000133520790476186177400000003726004147777765806_);}
	
		.st70{clip-path:url(#SVGID_00000129915218934573169030000013261862785780385926_);fill:url(#SVGID_00000044137111022673107100000011085878887639840144_);}
	
		.st71{clip-path:url(#SVGID_00000138551972934399092480000009824966401858371775_);fill:url(#SVGID_00000172401316308884502920000007836996588813717916_);}
	
		.st72{clip-path:url(#SVGID_00000138551972934399092480000009824966401858371775_);fill:url(#SVGID_00000156554933689954081370000001103890142016973440_);}
	
		.st73{clip-path:url(#SVGID_00000138551972934399092480000009824966401858371775_);fill:url(#SVGID_00000137848552241281745230000009860810082414477233_);}
	
		.st74{clip-path:url(#SVGID_00000138551972934399092480000009824966401858371775_);fill:url(#SVGID_00000031892446114733333680000015604111268642088852_);}
	
		.st75{clip-path:url(#SVGID_00000138551972934399092480000009824966401858371775_);fill:url(#SVGID_00000024723197140838183180000006352429403273602949_);}
	
		.st76{clip-path:url(#SVGID_00000138551972934399092480000009824966401858371775_);fill:url(#SVGID_00000073002577571568827070000006664383597623727270_);}
	
		.st77{clip-path:url(#SVGID_00000138551972934399092480000009824966401858371775_);fill:url(#SVGID_00000137103326447830825170000004499306881799301542_);}
	
		.st78{clip-path:url(#SVGID_00000138551972934399092480000009824966401858371775_);fill:url(#SVGID_00000080899594790358798340000017950059147222317194_);}
	
		.st79{clip-path:url(#SVGID_00000135674412862138672640000009454102212503515048_);fill:url(#SVGID_00000171683974522840000330000018197857686997994407_);}
	
		.st80{clip-path:url(#SVGID_00000135674412862138672640000009454102212503515048_);fill:url(#SVGID_00000149368705777096053280000017454458891770440091_);}
	
		.st81{clip-path:url(#SVGID_00000135674412862138672640000009454102212503515048_);fill:url(#SVGID_00000132047988724573323580000010535870468793878664_);}
	
		.st82{clip-path:url(#SVGID_00000135674412862138672640000009454102212503515048_);fill:url(#SVGID_00000127027937364626498190000008641872408751401099_);}
	
		.st83{clip-path:url(#SVGID_00000135674412862138672640000009454102212503515048_);fill:url(#SVGID_00000077311310224333929610000014580174350912145317_);}
	
		.st84{clip-path:url(#SVGID_00000135674412862138672640000009454102212503515048_);fill:url(#SVGID_00000137113311938830598370000004867367177571903653_);}
	
		.st85{clip-path:url(#SVGID_00000135674412862138672640000009454102212503515048_);fill:url(#SVGID_00000168823679483287221730000002538734150133193115_);}
	
		.st86{clip-path:url(#SVGID_00000135674412862138672640000009454102212503515048_);fill:url(#SVGID_00000132048331376220952110000009361582311866553502_);}
	
		.st87{clip-path:url(#SVGID_00000000916880755470503060000004751995635689021620_);fill:url(#SVGID_00000078010883851022802460000011274385682643033789_);}
	
		.st88{clip-path:url(#SVGID_00000000916880755470503060000004751995635689021620_);fill:url(#SVGID_00000158024370046838039590000002070946268186887869_);}
	
		.st89{clip-path:url(#SVGID_00000000916880755470503060000004751995635689021620_);fill:url(#SVGID_00000177452880524762918520000004320877950918903711_);}
	
		.st90{clip-path:url(#SVGID_00000000916880755470503060000004751995635689021620_);fill:url(#SVGID_00000056404842718405297990000016060222175084873914_);}
	
		.st91{clip-path:url(#SVGID_00000000916880755470503060000004751995635689021620_);fill:url(#SVGID_00000044874110379210684400000015612545278425711761_);}
	
		.st92{clip-path:url(#SVGID_00000000916880755470503060000004751995635689021620_);fill:url(#SVGID_00000014616395333242796220000013456505732421163922_);}
	
		.st93{clip-path:url(#SVGID_00000000916880755470503060000004751995635689021620_);fill:url(#SVGID_00000176025442512479843790000003913521170281427620_);}
	
		.st94{clip-path:url(#SVGID_00000000916880755470503060000004751995635689021620_);fill:url(#SVGID_00000095323595977343771550000010842200437063508663_);}
	
		.st95{clip-path:url(#SVGID_00000087378969442741231560000012773032645243064235_);fill:url(#SVGID_00000036949470151796676760000005530347704083808190_);}
	
		.st96{clip-path:url(#SVGID_00000087378969442741231560000012773032645243064235_);fill:url(#SVGID_00000021819677860725012700000013535640894563956397_);}
	
		.st97{clip-path:url(#SVGID_00000087378969442741231560000012773032645243064235_);fill:url(#SVGID_00000070807627455449106070000011085119516183037325_);}
	
		.st98{clip-path:url(#SVGID_00000087378969442741231560000012773032645243064235_);fill:url(#SVGID_00000048460325804411288740000011069902797236271237_);}
	
		.st99{clip-path:url(#SVGID_00000087378969442741231560000012773032645243064235_);fill:url(#SVGID_00000131335235150863866480000009361078663608800394_);}
	
		.st100{clip-path:url(#SVGID_00000087378969442741231560000012773032645243064235_);fill:url(#SVGID_00000114043837263516542380000006789154123873534370_);}
	
		.st101{clip-path:url(#SVGID_00000087378969442741231560000012773032645243064235_);fill:url(#SVGID_00000083797941513367947030000008727336403884754101_);}
	
		.st102{clip-path:url(#SVGID_00000087378969442741231560000012773032645243064235_);fill:url(#SVGID_00000118378414114233052160000009631615800492536224_);}
	
		.st103{clip-path:url(#SVGID_00000006705950873812960450000001360031305962067863_);fill:url(#SVGID_00000017490123050001867740000014909535734630668436_);}
	
		.st104{clip-path:url(#SVGID_00000006705950873812960450000001360031305962067863_);fill:url(#SVGID_00000078735267594310063110000016387107189527706498_);}
	
		.st105{clip-path:url(#SVGID_00000006705950873812960450000001360031305962067863_);fill:url(#SVGID_00000046336941057291267710000012898722632720970914_);}
	
		.st106{clip-path:url(#SVGID_00000006705950873812960450000001360031305962067863_);fill:url(#SVGID_00000062895610431265122800000010057333784151898269_);}
	
		.st107{clip-path:url(#SVGID_00000006705950873812960450000001360031305962067863_);fill:url(#SVGID_00000041258091470537809970000012164592807197130681_);}
	
		.st108{clip-path:url(#SVGID_00000006705950873812960450000001360031305962067863_);fill:url(#SVGID_00000039831034345316285570000017168425511969952667_);}
	
		.st109{clip-path:url(#SVGID_00000006705950873812960450000001360031305962067863_);fill:url(#SVGID_00000068658837702248179680000015048214648599538820_);}
	
		.st110{clip-path:url(#SVGID_00000006705950873812960450000001360031305962067863_);fill:url(#SVGID_00000135666956588736358750000017407442163001094294_);}
	
		.st111{clip-path:url(#SVGID_00000155859502169424914190000000651667898789362587_);fill:url(#SVGID_00000017515605035397420750000018407387979274053265_);}
	
		.st112{clip-path:url(#SVGID_00000155859502169424914190000000651667898789362587_);fill:url(#SVGID_00000061435318357703269690000005529376044943175557_);}
	
		.st113{clip-path:url(#SVGID_00000155859502169424914190000000651667898789362587_);fill:url(#SVGID_00000093876069296669751250000016920868453297604499_);}
	
		.st114{clip-path:url(#SVGID_00000155859502169424914190000000651667898789362587_);fill:url(#SVGID_00000129200649388403531300000009510288863986665147_);}
	
		.st115{clip-path:url(#SVGID_00000155859502169424914190000000651667898789362587_);fill:url(#SVGID_00000054227043854267738020000007086453557957868687_);}
	
		.st116{clip-path:url(#SVGID_00000155859502169424914190000000651667898789362587_);fill:url(#SVGID_00000104696397913562934070000016059153357423129744_);}
	
		.st117{clip-path:url(#SVGID_00000155859502169424914190000000651667898789362587_);fill:url(#SVGID_00000085210956018171826190000011170426299247397823_);}
	
		.st118{clip-path:url(#SVGID_00000155859502169424914190000000651667898789362587_);fill:url(#SVGID_00000008854468958919138910000015501941474069309318_);}
	
		.st119{clip-path:url(#SVGID_00000124123132392946323670000013027029946404323745_);fill:url(#SVGID_00000078733186266857130180000001131973415627603879_);}
	
		.st120{clip-path:url(#SVGID_00000124123132392946323670000013027029946404323745_);fill:url(#SVGID_00000176734575447065142920000004709972420283036587_);}
	
		.st121{clip-path:url(#SVGID_00000124123132392946323670000013027029946404323745_);fill:url(#SVGID_00000165233473963170212370000004573125845931418761_);}
	
		.st122{clip-path:url(#SVGID_00000124123132392946323670000013027029946404323745_);fill:url(#SVGID_00000021832765505145299750000012855931160193144502_);}
	
		.st123{clip-path:url(#SVGID_00000124123132392946323670000013027029946404323745_);fill:url(#SVGID_00000140009226540344579010000003011808986143604657_);}
	
		.st124{clip-path:url(#SVGID_00000124123132392946323670000013027029946404323745_);fill:url(#SVGID_00000160184605191358816630000000436171578998097310_);}
	
		.st125{clip-path:url(#SVGID_00000124123132392946323670000013027029946404323745_);fill:url(#SVGID_00000135669123022494717840000014361449481059891637_);}
	
		.st126{clip-path:url(#SVGID_00000124123132392946323670000013027029946404323745_);fill:url(#SVGID_00000121985262873853034730000001304258284070744511_);}
	
		.st127{clip-path:url(#SVGID_00000176040745967800706650000009626046190736420496_);fill:url(#SVGID_00000133517948219220622200000006527344455606937472_);}
	
		.st128{clip-path:url(#SVGID_00000176040745967800706650000009626046190736420496_);fill:url(#SVGID_00000072275776308520455300000014028149090364749499_);}
	
		.st129{clip-path:url(#SVGID_00000176040745967800706650000009626046190736420496_);fill:url(#SVGID_00000160165381639816765400000014387437472395237810_);}
	
		.st130{clip-path:url(#SVGID_00000176040745967800706650000009626046190736420496_);fill:url(#SVGID_00000070099170368998417590000010333674768665619584_);}
	
		.st131{clip-path:url(#SVGID_00000176040745967800706650000009626046190736420496_);fill:url(#SVGID_00000087373902465087316940000000634626661611359887_);}
	
		.st132{clip-path:url(#SVGID_00000176040745967800706650000009626046190736420496_);fill:url(#SVGID_00000114034014215621054630000010484373361448650642_);}
	
		.st133{clip-path:url(#SVGID_00000176040745967800706650000009626046190736420496_);fill:url(#SVGID_00000022551249210896440450000002660084977460682118_);}
	
		.st134{clip-path:url(#SVGID_00000176040745967800706650000009626046190736420496_);fill:url(#SVGID_00000045616527782703468500000011184784383795874447_);}
	
		.st135{clip-path:url(#SVGID_00000050633761537480715610000013031705689614759851_);fill:url(#SVGID_00000149357820573535308100000010132555661708994460_);}
	
		.st136{clip-path:url(#SVGID_00000050633761537480715610000013031705689614759851_);fill:url(#SVGID_00000119828516871244756150000008296852480586545551_);}
	
		.st137{clip-path:url(#SVGID_00000050633761537480715610000013031705689614759851_);fill:url(#SVGID_00000165223674843820112710000010843529678154088127_);}
	
		.st138{clip-path:url(#SVGID_00000050633761537480715610000013031705689614759851_);fill:url(#SVGID_00000002375323687429522840000016931583776874743440_);}
	
		.st139{clip-path:url(#SVGID_00000050633761537480715610000013031705689614759851_);fill:url(#SVGID_00000008106767215091972470000016723979917776456888_);}
	
		.st140{clip-path:url(#SVGID_00000050633761537480715610000013031705689614759851_);fill:url(#SVGID_00000019669051844048721110000012372039807280966329_);}
	
		.st141{clip-path:url(#SVGID_00000050633761537480715610000013031705689614759851_);fill:url(#SVGID_00000012455600951031102170000015084552310853582527_);}
	
		.st142{clip-path:url(#SVGID_00000050633761537480715610000013031705689614759851_);fill:url(#SVGID_00000052064229077687728710000003423075499281752985_);}
	
		.st143{clip-path:url(#SVGID_00000006702120181766194830000016391872160504982681_);fill:url(#SVGID_00000178917189288332918780000007912016835666721464_);}
	
		.st144{clip-path:url(#SVGID_00000006702120181766194830000016391872160504982681_);fill:url(#SVGID_00000003813465006430710460000016762180070424541580_);}
	
		.st145{clip-path:url(#SVGID_00000006702120181766194830000016391872160504982681_);fill:url(#SVGID_00000031205893145069901950000006772785214503556482_);}
	
		.st146{clip-path:url(#SVGID_00000006702120181766194830000016391872160504982681_);fill:url(#SVGID_00000119821479413250754050000000362860952330273960_);}
	
		.st147{clip-path:url(#SVGID_00000006702120181766194830000016391872160504982681_);fill:url(#SVGID_00000081613436610553326620000004059778495921691554_);}
	
		.st148{clip-path:url(#SVGID_00000006702120181766194830000016391872160504982681_);fill:url(#SVGID_00000070820870886552537560000011887152206881425051_);}
	
		.st149{clip-path:url(#SVGID_00000006702120181766194830000016391872160504982681_);fill:url(#SVGID_00000057863118184451813910000000972933596790498452_);}
	
		.st150{clip-path:url(#SVGID_00000006702120181766194830000016391872160504982681_);fill:url(#SVGID_00000031169428931178799170000017890635005931078818_);}
	.st151{opacity:0.5;fill:#F7B05B;}
	.st152{fill:none;stroke:#FFFFFF;stroke-width:0.9638;stroke-miterlimit:10;}
	.st153{clip-path:url(#SVGID_00000023996362218927783290000005105449140586473382_);fill:#F7B05B;}
	.st154{fill:#F7B05B;stroke:#000000;stroke-miterlimit:10;}
	.st155{fill:none;stroke:#000000;stroke-width:4;stroke-miterlimit:10;}
	.st156{opacity:0.5;fill:#F7B05B;stroke:#000000;stroke-width:4;stroke-miterlimit:10;}
	.st157{opacity:0.25;fill:none;stroke:#F7B05B;stroke-width:3;stroke-miterlimit:10;}
	.st158{fill:none;stroke:#F7B05B;stroke-width:2.0773;stroke-miterlimit:10;}
	.st159{opacity:0.8;}
</style>
<g class="st5">
	<path class="st10" d="M31.4,80.1H16.6c-1.2,0-2.1-0.3-2.6-0.8c-0.5-0.5-0.8-1.4-0.8-2.6V14.7c0-1.2,0.3-2.1,0.8-2.6
		c0.5-0.5,1.4-0.8,2.6-0.8h14.8c1.2,0,2.1,0.3,2.6,0.8c0.5,0.5,0.8,1.4,0.8,2.6v20.7h16V14.7c0-1.2,0.3-2.1,0.8-2.6
		c0.5-0.5,1.4-0.8,2.6-0.8h14.8c1.2,0,2.1,0.3,2.6,0.8c0.5,0.5,0.8,1.4,0.8,2.6v61.9c0,1.2-0.3,2.1-0.8,2.6
		c-0.5,0.5-1.4,0.8-2.6,0.8H54.2c-1.2,0-2.1-0.3-2.6-0.8c-0.5-0.5-0.8-1.4-0.8-2.6V55.5h-16v21.2c0,1.2-0.3,2.1-0.8,2.6
		C33.5,79.9,32.6,80.1,31.4,80.1z M23.5,71.5h1V46.2h36.7v25.3h1V19.9h-1v25.3H24.4V19.9h-1V71.5z"/>
	<path class="st10" d="M71.4,173.9c0,2.9-0.4,5.6-1.3,8c-0.9,2.4-2.4,4.4-4.6,6.1c-2.2,1.7-5.2,3-9.1,4c-3.9,1-8.7,1.4-14.7,1.4
		c-5.9,0-10.8-0.5-14.7-1.4c-3.9-1-6.9-2.3-9.1-4c-2.2-1.7-3.7-3.7-4.6-6.1c-0.9-2.4-1.3-5.1-1.3-8v-32.6c0-2.9,0.4-5.6,1.3-8
		c0.9-2.4,2.4-4.4,4.6-6.2c2.2-1.7,5.2-3.1,9.1-4c3.9-1,8.8-1.4,14.7-1.4c5.9,0,10.8,0.5,14.7,1.4c3.9,1,6.9,2.3,9.1,4
		c2.2,1.7,3.7,3.8,4.6,6.2c0.9,2.4,1.3,5.1,1.3,8V173.9z M61,171.7v-28.2c0-3.8-1.4-6.9-4.1-9.3c-2.7-2.4-7.8-3.6-15.3-3.6
		c-7.5,0-12.5,1.2-15.2,3.6c-2.7,2.4-4,5.5-4,9.3v28.2c0,3.8,1.3,6.9,4,9.3c2.7,2.4,7.7,3.6,15.2,3.6c7.5,0,12.6-1.2,15.3-3.6
		C59.7,178.6,61,175.5,61,171.7z M23.4,171.7v-28.2c0-3.6,1.3-6.5,3.8-8.7c2.5-2.2,7.4-3.3,14.4-3.3s11.9,1.1,14.5,3.3
		c2.6,2.2,3.9,5.1,3.9,8.7v28.2c0,3.6-1.3,6.5-3.9,8.7c-2.6,2.2-7.5,3.3-14.5,3.3s-11.9-1.1-14.4-3.3
		C24.6,178.1,23.4,175.3,23.4,171.7z M33.8,170.4c0,1.3,0.5,2.3,1.4,3.2s3.2,1.3,6.6,1.3s5.6-0.4,6.6-1.3s1.4-1.9,1.4-3.2v-25.7
		c0-1.2-0.5-2.2-1.4-3.1s-3.2-1.3-6.6-1.3s-5.6,0.4-6.6,1.3s-1.4,1.9-1.4,3.1V170.4z"/>
	<path class="st10" d="M45.6,303.8H30.1c-1.2,0-2.1-0.3-2.6-0.8c-0.5-0.5-0.8-1.4-0.8-2.6v-46.9H12.7c-1.2,0-2.1-0.3-2.6-0.8
		c-0.5-0.5-0.8-1.4-0.8-2.6v-11.6c0-1.2,0.3-2.1,0.8-2.6c0.5-0.5,1.4-0.8,2.6-0.8h50.5c1.2,0,2.1,0.3,2.6,0.8
		c0.5,0.5,0.8,1.4,0.8,2.6V250c0,1.2-0.3,2.1-0.8,2.6c-0.5,0.5-1.4,0.8-2.6,0.8H49.1v46.9c0,1.2-0.3,2.1-0.8,2.6
		C47.7,303.5,46.8,303.8,45.6,303.8z M37.4,295.2h1v-50.7H58v-1H17.8v1h19.6V295.2z"/>
	<path class="st10" d="M48.8,415.6H16.6c-1.2,0-2.1-0.3-2.6-0.8c-0.5-0.5-0.8-1.4-0.8-2.6v-61.9c0-1.2,0.3-2.1,0.8-2.6
		c0.5-0.5,1.4-0.8,2.6-0.8h32.2c8,0,13.9,1.6,17.7,4.8c3.9,3.2,5.8,8.1,5.8,14.7v29.8c0,6.6-1.9,11.5-5.8,14.7
		C62.7,414,56.8,415.6,48.8,415.6z M23.5,407h23.1c3.2,0,5.9-0.3,7.9-1c2-0.7,3.6-1.6,4.7-2.7c1.1-1.1,1.8-2.5,2.2-4.1
		c0.3-1.6,0.5-3.3,0.5-5.2v-25.3c0-1.8-0.2-3.6-0.6-5.2c-0.4-1.6-1.1-3-2.2-4.2c-1.1-1.2-2.6-2.1-4.6-2.8c-2-0.7-4.6-1.1-7.9-1.1
		H23.5V407z M46.7,356.3c3,0,5.4,0.3,7.3,1c1.9,0.6,3.3,1.5,4.3,2.6c1,1.1,1.7,2.4,2.1,3.9c0.4,1.5,0.6,3.2,0.6,4.9V394
		c0,1.7-0.2,3.3-0.5,4.8c-0.4,1.5-1,2.8-2.1,3.8c-1,1.1-2.5,1.9-4.3,2.5c-1.9,0.6-4.3,0.9-7.4,0.9H24.5v-49.7H46.7z M34.8,365v32.5
		h11.4c1.5,0,2.7-0.4,3.4-1.1c0.7-0.8,1.1-1.9,1.1-3.5v-23.2c0-1.6-0.4-2.8-1.1-3.5c-0.7-0.7-1.9-1.1-3.4-1.1H34.8z"/>
	<path class="st10" d="M71.4,509.4c0,2.9-0.4,5.6-1.3,8c-0.9,2.4-2.4,4.4-4.6,6.1c-2.2,1.7-5.2,3-9.1,4c-3.9,1-8.7,1.4-14.7,1.4
		c-5.9,0-10.8-0.5-14.7-1.4c-3.9-1-6.9-2.3-9.1-4c-2.2-1.7-3.7-3.7-4.6-6.1c-0.9-2.4-1.3-5.1-1.3-8v-32.6c0-2.9,0.4-5.6,1.3-8
		c0.9-2.4,2.4-4.4,4.6-6.2c2.2-1.7,5.2-3.1,9.1-4c3.9-1,8.8-1.4,14.7-1.4c5.9,0,10.8,0.5,14.7,1.4c3.9,1,6.9,2.3,9.1,4
		c2.2,1.7,3.7,3.8,4.6,6.2c0.9,2.4,1.3,5.1,1.3,8V509.4z M61,507.2V479c0-3.8-1.4-6.9-4.1-9.3c-2.7-2.4-7.8-3.6-15.3-3.6
		c-7.5,0-12.5,1.2-15.2,3.6c-2.7,2.4-4,5.5-4,9.3v28.2c0,3.8,1.3,6.9,4,9.3c2.7,2.4,7.7,3.6,15.2,3.6c7.5,0,12.6-1.2,15.3-3.6
		C59.7,514.1,61,511,61,507.2z M23.4,507.2V479c0-3.6,1.3-6.5,3.8-8.7c2.5-2.2,7.4-3.3,14.4-3.3s11.9,1.1,14.5,3.3
		c2.6,2.2,3.9,5.1,3.9,8.7v28.2c0,3.6-1.3,6.5-3.9,8.7c-2.6,2.2-7.5,3.3-14.5,3.3s-11.9-1.1-14.4-3.3
		C24.6,513.6,23.4,510.7,23.4,507.2z M33.8,505.9c0,1.3,0.5,2.3,1.4,3.2s3.2,1.3,6.6,1.3s5.6-0.4,6.6-1.3s1.4-1.9,1.4-3.2v-25.7
		c0-1.2-0.5-2.2-1.4-3.1s-3.2-1.3-6.6-1.3s-5.6,0.4-6.6,1.3s-1.4,1.9-1.4,3.1V505.9z"/>
	<path class="st10" d="M65.7,639.2H35.6c-8,0-13.9-1.6-17.7-4.8c-3.9-3.2-5.8-8.1-5.8-14.7v-29.8c0-6.6,1.9-11.5,5.8-14.7
		c3.9-3.2,9.8-4.8,17.7-4.8h23.9c1.2,0,2.1,0.3,2.6,0.8c0.5,0.5,0.8,1.4,0.8,2.6v11.6c0,1.2-0.3,2.1-0.8,2.6
		c-0.5,0.5-1.4,0.8-2.6,0.8H39.6c-2,0-3.4,0.4-4.4,1.2s-1.4,2-1.4,3.6v22.8c0,1.6,0.4,2.8,1.1,3.5c0.7,0.8,1.8,1.1,3.3,1.1h9.3
		v-14.9c0-1.2,0.3-2.1,0.8-2.6c0.5-0.5,1.4-0.8,2.6-0.8h14.8c1.2,0,2.1,0.3,2.6,0.8c0.5,0.5,0.8,1.4,0.8,2.6v29.5
		c0,1.2-0.3,2.1-0.8,2.6C67.8,639,66.9,639.2,65.7,639.2z M39.7,630.6h19v-19.2h-1v18.3H39.7c-6.4,0-10.8-0.9-13-2.6
		c-2.2-1.7-3.3-4.7-3.3-8.8v-26.8c0-4.2,1-7.2,3-8.9c2-1.8,5.8-2.6,11.4-2.6h16.5v-1H37.8c-6.1,0-10.2,1-12.2,2.9
		c-2,1.9-3.1,5.1-3.1,9.7v26.8c0,2.2,0.2,4.1,0.7,5.7c0.5,1.6,1.4,2.8,2.6,3.8c1.3,1,3,1.7,5.3,2.2
		C33.3,630.4,36.2,630.6,39.7,630.6z"/>
</g>
</svg>
